<svg id="Layer_1" data-name="Layer 1" xmlns="http://www.w3.org/2000/svg" viewBox="0 0 53.82 46.68"><defs><style>.cls-1{fill:none;stroke:#293347;stroke-linecap:round;stroke-linejoin:round;}</style></defs><title>background</title><path class="cls-1" d="M57.15,46.69V41h4.08c2.39,0,4.49-1.48,4.49-3.87V32.42H68.3c3.61-.15-2.71-9.83-2.71-11.26,0-5.16-3-8.85-6.92-11" transform="translate(-16.1 -0.51)"/><path class="cls-1" d="M37.36,34.7h0A14.84,14.84,0,0,0,40,36.94v9.74" transform="translate(-16.1 -0.51)"/><path class="cls-1" d="M30.31,5.61a15.7,15.7,0,1,1,1.06,23.17l-2.58,2.57-2-2,2.58-2.57A15.69,15.69,0,0,1,30.31,5.61Z" transform="translate(-16.1 -0.51)"/><path class="cls-1" d="M25,29.05a1.06,1.06,0,0,1,.73-.3,1,1,0,0,1,.73.3l2.58,2.58A1,1,0,0,1,29.12,33l-.05.05L21.2,41a2.85,2.85,0,0,1-4-4Z" transform="translate(-16.1 -0.51)"/><path class="cls-1" d="M41.45,4.4A12.32,12.32,0,1,1,29.14,16.73v0A12.32,12.32,0,0,1,41.45,4.4Z" transform="translate(-16.1 -0.51)"/><path class="cls-1" d="M37.17,20.28a.72.72,0,0,0,.7.72H45a.71.71,0,0,0,.71-.71h0V13.15a.71.71,0,0,0-.7-.72H37.87a.71.71,0,0,0-.71.71h0Z" transform="translate(-16.1 -0.51)"/><line class="cls-1" x1="28.92" y1="11.92" x2="28.92" y2="9.78"/><line class="cls-1" x1="25.35" y1="11.92" x2="25.35" y2="9.78"/><line class="cls-1" x1="21.78" y1="11.92" x2="21.78" y2="9.78"/><line class="cls-1" x1="28.92" y1="22.63" x2="28.92" y2="20.49"/><line class="cls-1" x1="25.35" y1="22.63" x2="25.35" y2="20.49"/><line class="cls-1" x1="21.78" y1="22.63" x2="21.78" y2="20.49"/><line class="cls-1" x1="31.78" y1="12.64" x2="29.63" y2="12.64"/><line class="cls-1" x1="31.78" y1="16.2" x2="29.63" y2="16.2"/><line class="cls-1" x1="31.78" y1="19.77" x2="29.63" y2="19.77"/><line class="cls-1" x1="21.07" y1="12.64" x2="18.93" y2="12.64"/><line class="cls-1" x1="21.07" y1="16.2" x2="18.93" y2="16.2"/><line class="cls-1" x1="21.07" y1="19.77" x2="18.93" y2="19.77"/><line class="cls-1" x1="26.07" y1="17.63" x2="23.93" y2="17.63"/><path class="cls-1" d="M60,24.76a.51.51,0,0,1,.53.51.52.52,0,0,1-.51.53.52.52,0,0,1-.53-.51h0A.52.52,0,0,1,60,24.76Z" transform="translate(-16.1 -0.51)"/></svg>