<svg id="Layer_1" data-name="Layer 1" xmlns="http://www.w3.org/2000/svg" viewBox="0 0 65.78 46.68"><defs><style>.cls-1{fill:none;stroke:#293347;stroke-linecap:round;stroke-linejoin:round;}</style></defs><title>background</title><path class="cls-1" d="M54.13,48.88l-1.28-7.24L58,40.72a5,5,0,0,0,4.42-5.85l-1.06-6,2.38-.63c4.56-1-4.68-11.81-5-13.64A15.75,15.75,0,0,0,47.86,2"/><path class="cls-1" d="M26.24,38.06h0a19.2,19.2,0,0,0,3.87,2.26l2.18,12.4"/><path class="cls-1" d="M10.74,2.62a20.29,20.29,0,1,1,6.55,29.25l-2.71,3.85-3-2.09,2.7-3.85A20.29,20.29,0,0,1,10.74,2.62Z"/><path class="cls-1" d="M9.24,33.65a1.37,1.37,0,0,1,.86-.55,1.27,1.27,0,0,1,1,.22L15,36a1.3,1.3,0,0,1,.41,1.73l0,.07L7.09,49.71a3.68,3.68,0,0,1-6-4.19Z"/><path class="cls-1" d="M24.65-1.42A15.92,15.92,0,1,1,11.74,17h0A15.92,15.92,0,0,1,24.65-1.42Z"/><path class="cls-1" d="M22.76,19.75a.94.94,0,0,0,1.06.76l9.07-1.6a.93.93,0,0,0,.75-1.06h0L32,8.76A.92.92,0,0,0,31,8h0L21.89,9.6a.91.91,0,0,0-.74,1.06h0Z"/><line class="cls-1" x1="30.99" y1="8" x2="30.51" y2="5.27"/><line class="cls-1" x1="26.45" y1="8.8" x2="25.97" y2="6.07"/><line class="cls-1" x1="21.9" y1="9.6" x2="21.42" y2="6.87"/><line class="cls-1" x1="33.4" y1="21.63" x2="32.92" y2="18.9"/><line class="cls-1" x1="28.85" y1="22.43" x2="28.37" y2="19.71"/><line class="cls-1" x1="24.31" y1="23.23" x2="23.83" y2="20.51"/><line class="cls-1" x1="34.79" y1="8.27" x2="32.06" y2="8.75"/><line class="cls-1" x1="35.59" y1="12.8" x2="32.86" y2="13.28"/><line class="cls-1" x1="36.4" y1="17.35" x2="33.66" y2="17.83"/><line class="cls-1" x1="21.16" y1="10.67" x2="18.44" y2="11.16"/><line class="cls-1" x1="21.96" y1="15.21" x2="19.24" y2="15.69"/><line class="cls-1" x1="22.76" y1="19.75" x2="20.04" y2="20.23"/><line class="cls-1" x1="28.65" y1="15.9" x2="25.92" y2="16.38"/><path class="cls-1" d="M52.83,20.33a.65.65,0,0,1,.78.5v0a.68.68,0,0,1-.53.79h0a.67.67,0,0,1-.79-.53h0a.67.67,0,0,1,.53-.79Z"/></svg>