<svg id="Camada_1" data-name="Camada 1" xmlns="http://www.w3.org/2000/svg" xmlns:xlink="http://www.w3.org/1999/xlink" viewBox="0 0 265 280"><defs><style>.cls-1,.cls-2{fill:#fff;}.cls-11,.cls-12,.cls-16,.cls-18,.cls-19,.cls-2,.cls-26,.cls-28,.cls-7{fill-rule:evenodd;}.cls-3{fill:#e6e6e6;}.cls-4{mask:url(#mask);}.cls-5{fill:#a041ff;}.cls-6{mask:url(#mask-2-2);}.cls-7{fill:#d0c6ac;}.cls-8{mask:url(#mask-3);}.cls-9{fill:#edb98a;}.cls-10{mask:url(#mask-4-2);}.cls-11{fill-opacity:0.1;}.cls-12{fill:#b7c1db;}.cls-13{mask:url(#mask-5);}.cls-14{fill:#3c4f5c;}.cls-15{mask:url(#mask-6-3);}.cls-16{fill:#f4f4f4;}.cls-17{mask:url(#mask-7);}.cls-18{fill-opacity:0.16;}.cls-19,.cls-24{fill-opacity:0.7;}.cls-20{mask:url(#mask-8);}.cls-21{mask:url(#mask-9);}.cls-22{fill:#ff4f6d;}.cls-23{mask:url(#mask-10);}.cls-25{mask:url(#mask-11);}.cls-26{fill-opacity:0.6;}.cls-27{mask:url(#mask-12);}.cls-28{fill:#1f3140;}.cls-29{mask:url(#mask-13);}.cls-30{fill:#2c1b18;}</style><mask id="mask" x="13" y="40" width="240" height="240" maskUnits="userSpaceOnUse"><g transform="translate(1)"><g id="mask-2"><circle id="path-1" class="cls-1" cx="132" cy="160" r="120"/></g></g></mask><mask id="mask-2-2" x="1" y="0" width="264" height="280" maskUnits="userSpaceOnUse"><g transform="translate(1)"><g id="mask-4"><path id="path-3" class="cls-2" d="M12,160a120,120,0,0,0,240,0h12V0H0V160Z"/></g></g></mask><mask id="mask-3" x="1" y="36" width="264" height="244" maskUnits="userSpaceOnUse"><g transform="translate(1)"><g id="mask-6"><path id="path-5" class="cls-2" d="M156,180.61V199h4a72,72,0,0,1,72,72v9H32v-9a72,72,0,0,1,72-72h4V180.61a56,56,0,0,1-31.69-44.73A12,12,0,0,1,66,124V110A12,12,0,0,1,76,98.17V92h0a56,56,0,0,1,56-56h0a56,56,0,0,1,56,56v6.17A12,12,0,0,1,198,110v14a12,12,0,0,1-10.31,11.88A56,56,0,0,1,156,180.61Z"/></g></g></mask><mask id="mask-4-2" x="33" y="36" width="200" height="244" maskUnits="userSpaceOnUse"><g transform="translate(1)"><g id="mask-6-2" data-name="mask-6"><path id="path-5-2" data-name="path-5" class="cls-2" d="M156,180.61V199h4a72,72,0,0,1,72,72v9H32v-9a72,72,0,0,1,72-72h4V180.61a56,56,0,0,1-31.69-44.73A12,12,0,0,1,66,124V110A12,12,0,0,1,76,98.17V92h0a56,56,0,0,1,56-56h0a56,56,0,0,1,56,56v6.17A12,12,0,0,1,198,110v14a12,12,0,0,1-10.31,11.88A56,56,0,0,1,156,180.61Z"/></g></g></mask><mask id="mask-5" x="1" y="170" width="264" height="110" maskUnits="userSpaceOnUse"><g transform="translate(1)"><g id="react-mask-279"><path id="react-path-278" class="cls-2" d="M108,183.07c-17.92,2-31.72,7.48-32,21.57A72,72,0,0,0,32,271h0v9H232v-9a72,72,0,0,0-44-66.36c-.28-14.09-14.08-19.56-32-21.57V202h0a24,24,0,0,1-24,24h0a24,24,0,0,1-24-24Z"/></g></g></mask><mask id="mask-6-3" x="33" y="183.07" width="200" height="96.93" maskUnits="userSpaceOnUse"><g transform="translate(1)"><g id="react-mask-279-2" data-name="react-mask-279"><path id="react-path-278-2" data-name="react-path-278" class="cls-2" d="M108,183.07c-17.92,2-31.72,7.48-32,21.57A72,72,0,0,0,32,271h0v9H232v-9a72,72,0,0,0-44-66.36c-.28-14.09-14.08-19.56-32-21.57V202h0a24,24,0,0,1-24,24h0a24,24,0,0,1-24-24Z"/></g></g></mask><mask id="mask-7" x="33" y="182.72" width="200" height="97.28" maskUnits="userSpaceOnUse"><g transform="translate(1)"><g id="react-mask-279-3" data-name="react-mask-279"><path id="react-path-278-3" data-name="react-path-278" class="cls-2" d="M108,183.07c-17.92,2-31.72,7.48-32,21.57A72,72,0,0,0,32,271h0v9H232v-9a72,72,0,0,0-44-66.36c-.28-14.09-14.08-19.56-32-21.57V202h0a24,24,0,0,1-24,24h0a24,24,0,0,1-24-24Z"/></g></g></mask><mask id="mask-8" x="114.11" y="136" width="37.79" height="30" maskUnits="userSpaceOnUse"><g transform="translate(1)"><g id="react-mask-293"><path id="react-path-292" class="cls-2" d="M113.12,149.13a19,19,0,0,0,37.77-.09,2.09,2.09,0,0,0-1.85-2H115.09A2.13,2.13,0,0,0,113.12,149.13Z"/></g></g></mask><mask id="mask-9" x="114.11" y="147" width="37.79" height="33" maskUnits="userSpaceOnUse"><g transform="translate(1)"><g id="react-mask-293-2" data-name="react-mask-293"><path id="react-path-292-2" data-name="react-path-292" class="cls-2" d="M113.12,149.13a19,19,0,0,0,37.77-.09,2.09,2.09,0,0,0-1.85-2H115.09A2.13,2.13,0,0,0,113.12,149.13Z"/></g></g></mask><mask id="mask-10" x="93" y="103" width="28" height="16" maskUnits="userSpaceOnUse"><g transform="translate(1)"><g id="react-mask-304"><path id="react-path-302" class="cls-2" d="M106,117.05c9.61,0,14,4.45,14-2.49S113.73,103,106,103s-14,4.62-14,11.56S96.39,117.05,106,117.05Z"/></g></g></mask><mask id="mask-11" x="145" y="103" width="28" height="16" maskUnits="userSpaceOnUse"><g transform="translate(1)"><g id="react-mask-305"><path id="react-path-303" class="cls-2" d="M158,117.05c9.61,0,14,4.45,14-2.49S165.73,103,158,103s-14,4.62-14,11.56S148.39,117.05,158,117.05Z"/></g></g></mask><mask id="mask-12" x="1" y="0" width="264" height="280" maskUnits="userSpaceOnUse"><g transform="translate(1)"><g id="react-mask-207"><rect id="react-path-209" class="cls-1" width="264" height="280"/></g></g></mask><mask id="mask-13" x="0" y="0" width="264" height="280" maskUnits="userSpaceOnUse"><g transform="translate(1)"><g id="react-mask-206"><path id="react-path-208" class="cls-2" d="M179.15,39.92a84.69,84.69,0,0,0-9.08-7.61c-.69-.53-1.39-1.05-2.06-1.6a10.65,10.65,0,0,1-1.91-1.66c-.45-1-.18-.22-.12-1.4.08-1.5,3.13-5.73.85-6.7-1-.43-2.79.71-3.75,1.08a58.24,58.24,0,0,1-5.73,1.9c.93-1.85,2.71-5.57-.63-4.58-2.61.78-5,2.77-7.64,3.71.86-1.42,4.32-5.81,1.19-6.06-1-.07-3.8,1.75-4.85,2.14a55,55,0,0,1-9.63,2.51c-11.2,2-24.29,1.45-34.65,6.54-8,3.93-15.88,10-20.49,17.8-4.45,7.48-6.11,15.67-7,24.25a120.88,120.88,0,0,0-.42,19.12c.1,2.07.34,11.61,3.34,8.72C78,96.64,78,90.83,78.4,88.86a92.73,92.73,0,0,1,2.72-11.64c2.21-6.68,4.81-13.79,10.31-18.39,3.52-2.95,6-6.94,9.38-9.92,1.51-1.34.36-1.2,2.79-1,1.64.12,3.29.16,4.93.2,3.79.1,7.59.08,11.39.09,7.65,0,15.26.14,22.9-.26,3.39-.18,6.8-.28,10.18-.59,1.9-.18,5.25-1.39,6.81-.46s2.9,3.61,3.93,4.75a61,61,0,0,0,8.12,6.92c5.9,4.57,8.87,10.33,10.66,17.48s1.29,13.75,3.49,20.76c.39,1.24,1.42,3.36,2.69,1.46a14.27,14.27,0,0,0,.17-3.42c0-4.52,1.14-7.91,1.13-12.46C189.94,68.53,189.5,50.49,179.15,39.92Z"/></g></g></mask></defs><title>avatar-purple</title><g id="Circle"><g id="Circle-Background"><circle class="cls-3" cx="133" cy="160" r="120"/></g><g class="cls-4"><rect class="cls-5" x="13" y="40" width="240" height="240"/></g></g><g class="cls-6"><g id="Avataaar"><g id="Body"><path class="cls-7" d="M156,180.61V199h4a72,72,0,0,1,72,72v9H32v-9a72,72,0,0,1,72-72h4V180.61a56,56,0,0,1-31.69-44.73A12,12,0,0,1,66,124V110A12,12,0,0,1,76,98.17V92h0a56,56,0,0,1,56-56h0a56,56,0,0,1,56,56v6.17A12,12,0,0,1,198,110v14a12,12,0,0,1-10.31,11.88A56,56,0,0,1,156,180.61Z" transform="translate(1)"/><g class="cls-8"><g id="Color"><rect class="cls-9" x="1" y="36" width="264" height="244"/></g></g><g class="cls-10"><path id="Neck-Shadow" class="cls-11" d="M188,115v23a56,56,0,0,1-112,0v-8a56,56,0,0,0,112,0Z" transform="translate(1)"/></g></g><g id="Hoodie"><path class="cls-12" d="M108,183.07c-17.92,2-31.72,7.48-32,21.57A72,72,0,0,0,32,271h0v9H232v-9a72,72,0,0,0-44-66.36c-.28-14.09-14.08-19.56-32-21.57V202h0a24,24,0,0,1-24,24h0a24,24,0,0,1-24-24Z" transform="translate(1)"/></g><g class="cls-13"><rect class="cls-14" x="1" y="170" width="264" height="110"/></g><g class="cls-15"><path id="Straps" class="cls-16" d="M102,231.74V280H95V228.15A64.77,64.77,0,0,0,102,231.74Zm67-3.59V268.5a3.5,3.5,0,0,1-7,0V231.74A64.77,64.77,0,0,0,169,228.15Z" transform="translate(1)"/></g><g class="cls-17"><path id="Shadow" class="cls-18" d="M91,182.72c-15,2.85-25.46,8.52-25.46,19.59C65.5,222,98.54,238,132,238s66.5-16,66.5-35.69c0-11.07-10.41-16.74-25.46-19.59,9.08,3.35,15,9,15,18.36,0,20.39-27.82,36.92-56,36.92s-56-16.53-56-36.92C76,191.71,81.88,186.07,91,182.72Z" transform="translate(1)"/></g><g id="Face"><g id="Mouth"><path class="cls-19" d="M113.12,149.13a19,19,0,0,0,37.77-.09,2.09,2.09,0,0,0-1.85-2H115.09A2.13,2.13,0,0,0,113.12,149.13Z" transform="translate(1)"/></g><g class="cls-20"><rect id="Teeth" class="cls-1" x="118" y="136" width="31" height="16" rx="5"/></g><g class="cls-21"><g id="Tongue"><circle class="cls-22" cx="128" cy="169" r="11"/><circle class="cls-22" cx="138" cy="169" r="11"/></g></g><path id="Nose" class="cls-18" d="M120,130c0,4.42,5.37,8,12,8h0c6.63,0,12-3.58,12-8" transform="translate(1)"/><g id="Eye"><g id="The-white-stuff"><path class="cls-2" d="M106,117.05c9.61,0,14,4.45,14-2.49S113.73,103,106,103s-14,4.62-14,11.56S96.39,117.05,106,117.05Z" transform="translate(1)"/></g><g class="cls-23"><circle class="cls-24" cx="107" cy="113" r="6"/></g></g><g id="Eyeball-Mask"><path class="cls-2" d="M158,117.05c9.61,0,14,4.45,14-2.49S165.73,103,158,103s-14,4.62-14,11.56S148.39,117.05,158,117.05Z" transform="translate(1)"/></g><g class="cls-25"><circle class="cls-24" cx="159" cy="113" r="6"/></g><path id="Eyebrow" class="cls-26" d="M102.55,88.15c-5.81.27-15.2,4.49-15,10.34a.25.25,0,0,0,.43.13c2.76-3,22.32-6,29.21-4.36.63.14,1.11-.48.71-.93-3.43-3.85-10.19-5.43-15.39-5.18" transform="translate(1)"/><path class="cls-26" d="M162.45,88.15c5.81.27,15.2,4.49,15,10.34a.25.25,0,0,1-.43.13c-2.76-3-22.32-6-29.21-4.36-.63.14-1.11-.48-.71-.93,3.43-3.85,10.19-5.43,15.39-5.18" transform="translate(1)"/></g><g id="Top"><g class="cls-27"><g id="Short-Hair"><path class="cls-28" d="M179.15,39.92a84.69,84.69,0,0,0-9.08-7.61c-.69-.53-1.39-1.05-2.06-1.6a10.65,10.65,0,0,1-1.91-1.66c-.45-1-.18-.22-.12-1.4.08-1.5,3.13-5.73.85-6.7-1-.43-2.79.71-3.75,1.08a58.24,58.24,0,0,1-5.73,1.9c.93-1.85,2.71-5.57-.63-4.58-2.61.78-5,2.77-7.64,3.71.86-1.42,4.32-5.81,1.19-6.06-1-.07-3.8,1.75-4.85,2.14a55,55,0,0,1-9.63,2.51c-11.2,2-24.29,1.45-34.65,6.54-8,3.93-15.88,10-20.49,17.8-4.45,7.48-6.11,15.67-7,24.25a120.88,120.88,0,0,0-.42,19.12c.1,2.07.34,11.61,3.34,8.72C78,96.64,78,90.83,78.4,88.86a92.73,92.73,0,0,1,2.72-11.64c2.21-6.68,4.81-13.79,10.31-18.39,3.52-2.95,6-6.94,9.38-9.92,1.51-1.34.36-1.2,2.79-1,1.64.12,3.29.16,4.93.2,3.79.1,7.59.08,11.39.09,7.65,0,15.26.14,22.9-.26,3.39-.18,6.8-.28,10.18-.59,1.9-.18,5.25-1.39,6.81-.46s2.9,3.61,3.93,4.75a61,61,0,0,0,8.12,6.92c5.9,4.57,8.87,10.33,10.66,17.48s1.29,13.75,3.49,20.76c.39,1.24,1.42,3.36,2.69,1.46a14.27,14.27,0,0,0,.17-3.42c0-4.52,1.14-7.91,1.13-12.46C189.94,68.53,189.5,50.49,179.15,39.92Z" transform="translate(1)"/></g><g class="cls-29"><rect class="cls-30" width="264" height="280"/></g></g></g></g></g></svg>