<?xml version="1.0" encoding="utf-8"?>
<!-- Generator: Adobe Illustrator 23.0.0, SVG Export Plug-In . SVG Version: 6.00 Build 0)  -->
<svg version="1.1" id="Capa_1" xmlns="http://www.w3.org/2000/svg" xmlns:xlink="http://www.w3.org/1999/xlink" x="0px" y="0px"
	 viewBox="0 0 800 800" style="enable-background:new 0 0 800 800;" xml:space="preserve">
<style type="text/css">
	.st0{fill:#FFFFFF;}
</style>
<path class="st0" d="M400,5C182.2,5,5,182.2,5,400s177.2,395,395,395s395-177.2,395-395S617.8,5,400,5z M400,778.7
	C196.7,778.7,21.3,603.3,21.3,400S196.7,21.3,400,21.3S778.7,196.7,778.7,400S603.3,778.7,400,778.7z"/>
<g>
	<g>
		<path id="LinkedIn_1_" class="st0" d="M650,454v184.9H542.8V466.4c0-43.3-15.5-72.9-54.3-72.9c-29.6,0-47.2,19.9-55,39.2
			c-2.8,6.9-3.6,16.5-3.6,26.1v180H322.8c0,0,1.4-292.1,0-322.4H430v45.7c-0.2,0.3-0.5,0.7-0.7,1h0.7v-1
			c14.2-21.9,39.7-53.3,96.6-53.3C597.1,308.9,650,355,650,454z M210.7,161.1c-36.7,0-60.7,24.1-60.7,55.7
			c0,30.9,23.3,55.7,59.2,55.7h0.7c37.4,0,60.6-24.8,60.6-55.7C269.9,185.2,247.3,161.1,210.7,161.1z M156.4,638.9h107.2V316.5
			H156.4V638.9z"/>
	</g>
	<g>
	</g>
	<g>
	</g>
	<g>
	</g>
	<g>
	</g>
	<g>
	</g>
	<g>
	</g>
	<g>
	</g>
	<g>
	</g>
	<g>
	</g>
	<g>
	</g>
	<g>
	</g>
	<g>
	</g>
	<g>
	</g>
	<g>
	</g>
	<g>
	</g>
</g>
</svg>
