<svg height="480pt" viewBox="0 0 480 480" width="480pt" xmlns="http://www.w3.org/2000/svg"><path d="m32 80h16v16h-16zm0 0"/><path d="m64 80h16v16h-16zm0 0"/><path d="m96 80h16v16h-16zm0 0"/><path d="m456 0h-384c-13.253906 0-24 10.746094-24 24v24h-24c-13.253906 0-24 10.746094-24 24v384c0 13.253906 10.746094 24 24 24h384c13.253906 0 24-10.746094 24-24v-24h24c13.253906 0 24-10.746094 24-24v-384c0-13.253906-10.746094-24-24-24zm-392 24c0-4.417969 3.582031-8 8-8h384c4.417969 0 8 3.582031 8 8v40h-33.472656c-3.378906-9.554688-12.394532-15.957031-22.527344-16h-344zm-40 40h384c4.417969 0 8 3.582031 8 8v40h-400v-40c0-4.417969 3.582031-8 8-8zm384 400h-384c-4.417969 0-8-3.582031-8-8v-328h400v328c0 4.417969-3.582031 8-8 8zm48-48h-24v-336h32v328c0 4.417969-3.582031 8-8 8zm0 0"/><path d="m144 80h208v16h-208zm0 0"/><path d="m122.34375 274.34375-24 24c-3.121094 3.125-3.121094 8.1875 0 11.3125l24 24 11.3125-11.3125-18.34375-18.34375 18.34375-18.34375zm0 0"/><path d="m253.65625 298.34375-24-24-11.3125 11.3125 18.34375 18.34375-18.34375 18.34375 11.3125 11.3125 24-24c3.121094-3.125 3.121094-8.1875 0-11.3125zm0 0"/><path d="m152.585938 341.042969 31.96875-80.007813 14.859374 5.933594-31.972656 80.011719zm0 0"/><path d="m313.136719 272.078125-31.257813-4.460937c-1.484375-4.371094-3.238281-8.648438-5.253906-12.800782l18.910156-25.214844c2.386719-3.183593 2.074219-7.632812-.734375-10.449218l-33.953125-33.953125c-2.816406-2.808594-7.265625-3.121094-10.449218-.734375l-25.230469 18.910156c-4.152344-2.015625-8.429688-3.769531-12.800781-5.253906l-4.464844-31.257813c-.5625-3.933593-3.929688-6.855469-7.902344-6.863281h-48c-3.980469 0-7.355469 2.925781-7.921875 6.863281l-4.460937 31.257813c-4.371094 1.484375-8.648438 3.238281-12.800782 5.253906l-25.214844-18.910156c-3.175781-2.410156-7.644531-2.097656-10.449218.734375l-33.953125 33.953125c-2.808594 2.816406-3.121094 7.265625-.734375 10.449218l18.910156 25.230469c-2.015625 4.152344-3.769531 8.429688-5.253906 12.800781l-31.257813 4.464844c-3.933593.5625-6.855469 3.929688-6.863281 7.902344v48c0 3.980469 2.925781 7.355469 6.863281 7.921875l31.257813 4.460937c1.484375 4.371094 3.238281 8.648438 5.253906 12.800782l-18.910156 25.214844c-2.386719 3.183593-2.074219 7.632812.734375 10.449218l33.953125 33.953125c2.816406 2.808594 7.265625 3.121094 10.449218.734375l25.222657-18.910156c4.152343 2.015625 8.429687 3.769531 12.800781 5.253906l4.464844 31.257813c.5625 3.9375 3.933594 6.859375 7.910156 6.863281h48c3.980469 0 7.355469-2.925781 7.921875-6.863281l4.460937-31.257813c4.371094-1.484375 8.648438-3.238281 12.800782-5.253906l25.214844 18.910156c3.183593 2.386719 7.632812 2.074219 10.449218-.734375l33.953125-33.953125c2.808594-2.816406 3.121094-7.265625.734375-10.449218l-18.910156-25.222657c2.015625-4.152343 3.769531-8.429687 5.253906-12.800781l31.257813-4.464844c3.9375-.5625 6.859375-3.933594 6.863281-7.910156v-48c0-3.980469-2.925781-7.355469-6.863281-7.921875zm-9.136719 48.984375-29.359375 4.183594c-3.105469.449218-5.667969 2.667968-6.542969 5.683594-1.925781 6.667968-4.574218 13.105468-7.898437 19.199218-1.507813 2.753906-1.269531 6.136719.617187 8.648438l17.757813 23.6875-24.125 24.128906-23.6875-17.792969c-2.511719-1.886719-5.894531-2.125-8.648438-.617187-6.09375 3.324218-12.53125 5.972656-19.203125 7.894531-3.011718.878906-5.230468 3.4375-5.679687 6.546875l-4.167969 29.375h-34.125l-4.183594-29.359375c-.449218-3.105469-2.667968-5.667969-5.683594-6.542969-6.667968-1.925781-13.105468-4.574218-19.199218-7.898437-2.753906-1.507813-6.136719-1.269531-8.648438.617187l-23.6875 17.757813-24.128906-24.125 17.761719-23.6875c1.886719-2.511719 2.125-5.894531.617187-8.648438-3.324218-6.09375-5.972656-12.53125-7.898437-19.203125-.878907-3.011718-3.4375-5.230468-6.542969-5.679687l-29.34375-4.167969v-34.125l29.359375-4.183594c3.105469-.449218 5.667969-2.667968 6.542969-5.683594 1.925781-6.667968 4.574218-13.109374 7.90625-19.199218 1.507812-2.753906 1.261718-6.136719-.625-8.648438l-17.757813-23.6875 24.125-24.128906 23.6875 17.761719c2.511719 1.886719 5.894531 2.132812 8.648438.625 6.09375-3.332031 12.53125-5.984375 19.203125-7.90625 3.011718-.878907 5.230468-3.4375 5.679687-6.542969l4.167969-29.34375h34.125l4.183594 29.359375c.449218 3.105469 2.667968 5.667969 5.683594 6.542969 6.667968 1.925781 13.109374 4.574218 19.199218 7.90625 2.753906 1.507812 6.136719 1.261718 8.648438-.625l23.6875-17.757813 24.128906 24.125-17.792969 23.6875c-1.886719 2.511719-2.132812 5.894531-.625 8.648438 3.332031 6.09375 5.980469 12.53125 7.902344 19.203125.878906 3.011718 3.4375 5.230468 6.546875 5.679687l29.359375 4.183594zm0 0"/><path d="m168 192h16v16h-16zm0 0"/><path d="m91.152344 230.460938 11.316406-11.3125 11.3125 11.3125-11.3125 11.3125zm0 0"/><path d="m64 296h16v16h-16zm0 0"/><path d="m91.148438 377.539062 11.3125-11.316406 11.316406 11.316406-11.316406 11.3125zm0 0"/><path d="m168 400h16v16h-16zm0 0"/><path d="m238.222656 377.542969 11.316406-11.316407 11.3125 11.316407-11.3125 11.3125zm0 0"/><path d="m272 296h16v16h-16zm0 0"/><path d="m238.230469 230.464844 11.3125-11.3125 11.3125 11.3125-11.3125 11.316406zm0 0"/><path d="m377.335938 177.976562 11.921874-11.921874-11.3125-11.3125-11.921874 11.921874c-4.253907-2.839843-9.015626-4.832031-14.023438-5.863281v-16.800781h-16v16.800781c-5.007812 1.03125-9.769531 3.019531-14.023438 5.855469l-11.921874-11.921875-11.3125 11.3125 11.921874 11.921875c-2.839843 4.253906-4.832031 9.019531-5.863281 14.03125h-16.800781v16h16.800781c1.03125 5.007812 3.019531 9.769531 5.855469 14.023438l-11.921875 11.921874 11.3125 11.3125 11.921875-11.921874c4.253906 2.839843 9.019531 4.832031 14.03125 5.863281v16.800781h16v-16.800781c5.007812-1.03125 9.769531-3.019531 14.023438-5.855469l11.921874 11.921875 11.3125-11.3125-11.921874-11.921875c2.839843-4.253906 4.832031-9.019531 5.863281-14.03125h16.800781v-16h-16.800781c-1.03125-5.007812-3.023438-9.769531-5.863281-14.023438zm-33.335938 46.023438c-13.253906 0-24-10.746094-24-24s10.746094-24 24-24 24 10.746094 24 24-10.746094 24-24 24zm0 0"/></svg>