<?xml version="1.0" encoding="utf-8"?>
<!-- Generator: Adobe Illustrator 23.0.0, SVG Export Plug-In . SVG Version: 6.00 Build 0)  -->
<svg version="1.1" id="Capa_1" xmlns="http://www.w3.org/2000/svg" xmlns:xlink="http://www.w3.org/1999/xlink" x="0px" y="0px"
	 viewBox="0 0 800 800" style="enable-background:new 0 0 800 800;" xml:space="preserve">
<style type="text/css">
	.st0{fill:#FFFFFF;}
</style>
<path class="st0" d="M400,5C182.2,5,5,182.2,5,400s177.2,395,395,395s395-177.2,395-395S617.8,5,400,5z M400,778.7
	C196.7,778.7,21.3,603.3,21.3,400S196.7,21.3,400,21.3S778.7,196.7,778.7,400S603.3,778.7,400,778.7z"/>
<g>
	<g>
		<path class="st0" d="M416.5,156.5c-13.5-8.9-31.1-8.7-44.4,0.5L173.5,295.5c-10.6,7.4-16.9,19.5-16.9,32.4V477
			c0,13.3,6.6,25.6,17.7,32.9l202,133.5c13.2,8.7,30.3,8.7,43.5,0l206-136.1c11.1-7.3,17.7-19.7,17.7-32.9V327.9
			c0-13.2-6.6-25.6-17.7-32.9L416.5,156.5z M570.4,318.1l-76.1,51.1l-71.4-51.9l-0.5-102.1L570.4,318.1z M370.7,215.3v99.9
			l-73.2,51.2l-73-48.9L370.7,215.3z M204.6,366.7l47.2,31.6l-47.2,33V366.7z M372,579.7l-147.3-98.8l73.6-51.4l73.7,49.5
			C372,478.9,372,579.7,372,579.7z M344,397.5l47.7-33.4l55.6,36.5L398,433.7L344,397.5z M424,579.7V478.9l70.5-47.2l75.9,49.9
			L424,579.7z M591.4,433.1l-50-32.9l50-33.6V433.1z"/>
	</g>
	<g>
	</g>
	<g>
	</g>
	<g>
	</g>
	<g>
	</g>
	<g>
	</g>
	<g>
	</g>
	<g>
	</g>
	<g>
	</g>
	<g>
	</g>
	<g>
	</g>
	<g>
	</g>
	<g>
	</g>
	<g>
	</g>
	<g>
	</g>
	<g>
	</g>
</g>
</svg>
