<?xml version="1.0" encoding="utf-8"?>
<!-- Generator: Adobe Illustrator 23.0.0, SVG Export Plug-In . SVG Version: 6.00 Build 0)  -->
<svg version="1.1" id="Capa_1" xmlns="http://www.w3.org/2000/svg" xmlns:xlink="http://www.w3.org/1999/xlink" x="0px" y="0px"
	 viewBox="0 0 800 800" style="enable-background:new 0 0 800 800;" xml:space="preserve">
<style type="text/css">
	.st0{fill:#FFFFFF;}
</style>
<path class="st0" d="M400,5C182.2,5,5,182.2,5,400s177.2,395,395,395s395-177.2,395-395S617.8,5,400,5z M400,778.7
	C196.7,778.7,21.3,603.3,21.3,400S196.7,21.3,400,21.3S778.7,196.7,778.7,400S603.3,778.7,400,778.7z"/>
<g>
	<g>
		<g>
			<path class="st0" d="M198,324.7c6.3,4.5,25.4,17.7,57.2,39.8c31.8,22,56.2,39,73.1,50.9c1.9,1.3,5.8,4.1,11.9,8.5
				c6,4.4,11.1,7.9,15.1,10.6c4,2.7,8.8,5.7,14.5,9.1c5.7,3.3,11,5.9,16,7.5c5,1.7,9.7,2.5,14,2.5h0.3h0.3c4.3,0,8.9-0.8,14-2.5
				c5-1.7,10.4-4.2,16-7.5c5.7-3.4,10.5-6.4,14.5-9.1c4-2.7,9-6.2,15.1-10.6c6-4.4,10-7.2,11.9-8.5c17.1-11.9,60.6-42.1,130.6-90.7
				c13.6-9.5,24.9-20.9,34-34.3c9.1-13.4,13.7-27.4,13.7-42.1c0-12.3-4.4-22.8-13.3-31.5c-8.8-8.7-19.3-13.1-31.4-13.1H194.6
				c-14.3,0-25.3,4.8-33.1,14.5c-7.7,9.7-11.6,21.8-11.6,36.3c0,11.7,5.1,24.4,15.3,38.1C175.6,306.1,186.5,316.9,198,324.7z"/>
			<path class="st0" d="M622.1,354.5c-61,41.3-107.3,73.4-138.9,96.3c-10.6,7.8-19.2,13.9-25.8,18.3c-6.6,4.4-15.4,8.8-26.4,13.4
				c-11,4.6-21.2,6.8-30.7,6.8H400h-0.3c-9.5,0-19.7-2.3-30.7-6.8c-11-4.6-19.8-9-26.4-13.4c-6.6-4.4-15.2-10.5-25.8-18.3
				c-25.1-18.4-71.3-50.5-138.7-96.3c-10.6-7.1-20-15.2-28.2-24.3v221.5c0,12.3,4.4,22.8,13.1,31.5c8.7,8.7,19.3,13.1,31.5,13.1
				h410.7c12.3,0,22.8-4.4,31.5-13.1c8.7-8.7,13.1-19.2,13.1-31.5V330.2C642,339.2,632.7,347.3,622.1,354.5z"/>
		</g>
	</g>
	<g>
	</g>
	<g>
	</g>
	<g>
	</g>
	<g>
	</g>
	<g>
	</g>
	<g>
	</g>
	<g>
	</g>
	<g>
	</g>
	<g>
	</g>
	<g>
	</g>
	<g>
	</g>
	<g>
	</g>
	<g>
	</g>
	<g>
	</g>
	<g>
	</g>
</g>
</svg>
