<?xml version="1.0" encoding="utf-8"?>
<!-- Generator: Adobe Illustrator 23.0.0, SVG Export Plug-In . SVG Version: 6.00 Build 0)  -->
<svg version="1.1" id="Capa_1" xmlns="http://www.w3.org/2000/svg" xmlns:xlink="http://www.w3.org/1999/xlink" x="0px" y="0px"
	 viewBox="0 0 800 800" style="enable-background:new 0 0 800 800;" xml:space="preserve">
<style type="text/css">
	.st0{fill:#FFFFFF;}
</style>
<path class="st0" d="M400,5C182.2,5,5,182.2,5,400s177.2,395,395,395s395-177.2,395-395S617.8,5,400,5z M400,778.7
	C196.7,778.7,21.3,603.3,21.3,400S196.7,21.3,400,21.3S778.7,196.7,778.7,400S603.3,778.7,400,778.7z"/>
<g>
	<g>
		<path class="st0" d="M486.4,435.6c-19.5,0-35.3,21.9-35.3,48.9c0,27,15.8,48.9,35.3,48.9c19.5,0,35.3-21.9,35.3-48.9
			C521.7,457.5,505.9,435.6,486.4,435.6z M609.4,308.3c4-9.9,4.2-66.3-17.2-120.3c0,0-49.2,5.4-123.7,56.5
			c-15.6-4.3-42-6.5-68.5-6.5s-52.8,2.2-68.5,6.5C257.1,193.4,207.9,188,207.9,188c-21.5,54-21.3,110.4-17.2,120.3
			c-25.2,27.4-40.6,60.3-40.6,105.2c0,195.3,162,198.4,202.9,198.4c9.3,0,27.7,0,47.1,0c19.4,0,37.9,0,47.1,0
			c40.9,0,202.9-3.1,202.9-198.4C650,368.6,634.6,335.7,609.4,308.3z M400.8,587.9h-1.5c-102.5,0-182.3-12.2-182.3-111.8
			c0-23.9,8.4-46,28.4-64.4c33.4-30.6,89.8-14.4,153.9-14.4c0.2,0,0.5,0,0.8,0c0.3,0,0.5,0,0.8,0c64.1,0,120.5-16.2,153.9,14.4
			c20,18.4,28.4,40.5,28.4,64.4C583.1,575.7,503.3,587.9,400.8,587.9z M313.6,435.6c-19.5,0-35.3,21.9-35.3,48.9
			c0,27,15.8,48.9,35.3,48.9c19.5,0,35.3-21.9,35.3-48.9C348.9,457.5,333.1,435.6,313.6,435.6z"/>
	</g>
	<g>
	</g>
	<g>
	</g>
	<g>
	</g>
	<g>
	</g>
	<g>
	</g>
	<g>
	</g>
	<g>
	</g>
	<g>
	</g>
	<g>
	</g>
	<g>
	</g>
	<g>
	</g>
	<g>
	</g>
	<g>
	</g>
	<g>
	</g>
	<g>
	</g>
</g>
</svg>
